<svg xmlns="http://www.w3.org/2000/svg" width="512" height="512" viewBox="0 0 512 512" role="img" aria-labelledby="title desc">
  <title id="title">LocalSpace logo</title>
  <desc id="desc">A rounded square app icon with a local terminal window inside a clean secure orbital workspace boundary.</desc>
  <defs>
    <linearGradient id="bg" x1="64" y1="64" x2="448" y2="448" gradientUnits="userSpaceOnUse">
      <stop stop-color="#FFFFFF"/>
      <stop offset="1" stop-color="#F3F6FB"/>
    </linearGradient>
    <linearGradient id="orbit" x1="112" y1="112" x2="400" y2="400" gradientUnits="userSpaceOnUse">
      <stop stop-color="#0EA5E9"/>
      <stop offset="0.5" stop-color="#2563EB"/>
      <stop offset="1" stop-color="#8B5CF6"/>
    </linearGradient>
    <linearGradient id="terminal" x1="155" y1="154" x2="357" y2="358" gradientUnits="userSpaceOnUse">
      <stop stop-color="#111827"/>
      <stop offset="1" stop-color="#020617"/>
    </linearGradient>
    <filter id="shadow" x="36" y="38" width="440" height="440" filterUnits="userSpaceOnUse" color-interpolation-filters="sRGB">
      <feDropShadow dx="0" dy="20" stdDeviation="24" flood-color="#0F172A" flood-opacity="0.16"/>
    </filter>
  </defs>

  <rect x="48" y="48" width="416" height="416" rx="104" fill="url(#bg)" filter="url(#shadow)"/>
  <path d="M256 105C336.1 105 401 169.9 401 250C401 330.1 336.1 395 256 395C175.9 395 111 330.1 111 250C111 169.9 175.9 105 256 105Z" fill="none" stroke="#E0F2FE" stroke-width="2" stroke-opacity="0.75"/>
  <path d="M256 105C336.1 105 401 169.9 401 250C401 330.1 336.1 395 256 395C175.9 395 111 330.1 111 250C111 169.9 175.9 105 256 105Z" fill="none" stroke="url(#orbit)" stroke-width="28" stroke-linecap="round" stroke-dasharray="350 108" transform="rotate(-38 256 250)"/>
  <rect x="156" y="164" width="200" height="168" rx="32" fill="url(#terminal)"/>
  <rect x="178" y="188" width="156" height="18" rx="9" fill="#334155"/>
  <circle cx="193" cy="197" r="5" fill="#38BDF8"/>
  <circle cx="211" cy="197" r="5" fill="#818CF8"/>
  <circle cx="229" cy="197" r="5" fill="#C084FC"/>
  <path d="M219 246L194 266L219 286" fill="none" stroke="#F8FAFC" stroke-width="16" stroke-linecap="round" stroke-linejoin="round"/>
  <path d="M293 246L318 266L293 286" fill="none" stroke="#F8FAFC" stroke-width="16" stroke-linecap="round" stroke-linejoin="round"/>
  <path d="M272 234L240 300" fill="none" stroke="#A5B4FC" stroke-width="14" stroke-linecap="round"/>
</svg>
